<svg id="Layer_1" data-name="Layer 1" xmlns="http://www.w3.org/2000/svg" viewBox="0 0 847 847"><defs><style>.cls-1,.cls-7{fill:#ccc;opacity:0.98;}.cls-2{fill:#06004a;}.cls-3{fill:none;}.cls-4{font-size:61px;stroke-width:0.25px;font-family:Obvia-Thin, Obvia;font-weight:200;}.cls-4,.cls-5,.cls-6,.cls-8{fill:#fff;}.cls-4,.cls-6,.cls-7,.cls-8{stroke:#000;stroke-miterlimit:10;}.cls-6{stroke-width:4px;}.cls-7{stroke-width:2px;}</style></defs><circle cx="423.5" cy="423.5" r="423.5"/><circle class="cls-1" cx="423.5" cy="423.5" r="403.25"/><circle class="cls-2" cx="423.5" cy="423.5" r="389.5"/><path class="cls-2" d="M1090,737.5l-258-4,26.9-71h208.19Q1078.55,700,1090,737.5Z" transform="translate(-536.5 -116.5)"/><path d="M772,635l-187,5a383.32,383.32,0,0,1-8-167l257-1Q803,553.5,772,635Z" transform="translate(-536.5 -116.5)"/><path d="M1336.75,636H1149.21q-32.1-82-64.21-164h258.89a367.47,367.47,0,0,1-7.14,164Z" transform="translate(-536.5 -116.5)"/><path d="M1177,790.35c-20.82,9.52-48.53,17.88-69.27,5.24-11.55-7-12.91-15.7-21.39-26.2-19.48-24.13-54-26.19-122.23-29.35-61.4-2.84-92.54-3.9-114.08,13.63-16.85,13.7-17.88,26.58-36.67,36.68-24.79,13.32-53.57,7.35-74.36,0L957,194h0Z" transform="translate(-536.5 -116.5)"/><path d="M1320,62" transform="translate(-536.5 -116.5)"/><path class="cls-3" d="M668,368" transform="translate(-536.5 -116.5)"/><text class="cls-4" transform="translate(356.26 787.74)">2002</text><text x="-536.5" y="-116.5"/><path d="M1175,790c-14.11.38-26,.25-35,0-25.63-.7-31.67-2.41-36-7-3.79-4-3-6.76-7-21-5.26-18.62-11.79-32.08-12-32-.44.16,20.73,60.09,21,60s-8.31-26-19.76-56.69c-.48-1.28-.9-2.39-1.24-3.31l-38.77.63L961,732c-64.36,1-129,2-129,2,4.1-9-8.86,17.67-12,27-4.18,12.43-8,29-8,29-4-.46-8.07-.84-12.24-1.15A295.17,295.17,0,0,0,745,790l99-116,229,3Z" transform="translate(-536.5 -116.5)"/><path class="cls-5" d="M893.22,681.66,879.53,720a5,5,0,0,0,2.61,0l4.47-12.7h15.83l4.47,12.7a5.45,5.45,0,0,0,2.72,0L896,681.66A5.49,5.49,0,0,0,893.22,681.66ZM887.42,705l7.08-20.13L901.63,705Z" transform="translate(-536.5 -116.5)"/><path class="cls-5" d="M918.1,681.66V720a5,5,0,0,0,2.61,0V681.66A5,5,0,0,0,918.1,681.66Z" transform="translate(-536.5 -116.5)"/><path class="cls-5" d="M944.49,681.66H932.78V720h11.71c8.59,0,13.86-2.73,13.86-10.62V692.22C958.35,684.33,953.08,681.66,944.49,681.66Zm11.25,27.49c0,7.14-5.1,8.3-11.25,8.3h-9.1V684.16h9.1c6.15,0,11.25,1,11.25,8.35Z" transform="translate(-536.5 -116.5)"/><path class="cls-5" d="M989.09,684a4.19,4.19,0,0,0,0-2.38h-20V720h20a4.4,4.4,0,0,0,0-2.44H971.75V701.61h16.76a4.16,4.16,0,0,0,0-2.37H971.75V684Z" transform="translate(-536.5 -116.5)"/><path class="cls-5" d="M1022.5,681.66v35l-20.82-35a7.19,7.19,0,0,0-3.13,0V720a5,5,0,0,0,2.61,0V685.61L1021.63,720a8.86,8.86,0,0,0,3.48,0V681.66A5,5,0,0,0,1022.5,681.66Z" transform="translate(-536.5 -116.5)"/><path class="cls-6" d="M741.05,568.67H690l-14.4,41a16,16,0,0,1-8.42,0L711.31,486a17.68,17.68,0,0,1,8.79,0l44.13,123.61a17.45,17.45,0,0,1-8.79,0Zm-25.62-72.18-22.82,64.88h45.82Z" transform="translate(-536.5 -116.5)"/><path class="cls-7" d="M948.17,164h22l248.5,656H1085.09l-25.35-65.6H859.42L834.91,820H701.36ZM812.09,790.4l142-383h11.84l140.3,383h68.47L959.16,221.12,745.31,790.4ZM816,670l-16-12,54,4-25.87,29.77L748,784Zm-7.3-26.69h46.49l-2.53,5.29H807Zm8.46-21.16H862.8l-2.54,5.29H814.62Zm7.6-21.16h45.65l-2.54,5.29h-44.8Zm8.46-21.16h45.64l-2.54,5.29H830.68Zm15.21-42.33h45.64l-2.53,5.29h-44.8Zm16.06-42.33h45.64l-2.53,5.3H862.8Zm185.1,230.68-19.44-52.91H887.31l-18.59,52.91ZM872.94,474h45.64l-2.53,5.29H870.41Zm7.61-21.16h45.64l-2.54,5.29H878.86ZM889,431.69h45.64L932.11,437H886.47Zm7.61-21.17h45.64l-2.54,5.29H894.92Zm119.89,232-57.34-160h-1.7L899.14,642.26ZM905.06,389.36H1012.4l2.54,5.29H902.52Zm7.61-21.16h92.13l1.69,5.29H911Zm7.6-21.17h76.07l2.54,5.3h-80.3Zm8.46-21.16h60l1.69,5.29H926.19Zm7.6-21.16h44l2.53,5.29H934.64Zm8.46-21.16h27.89l1.69,5.29H942.25Zm7.6-21.17h11.84l2.53,5.29H950.7Zm6.77-18,1.69,4.23h-3.39ZM976.9,410.52h44l1.69,5.29H979.44Zm7.61,21.17h44L1031,437h-44Zm7.61,21.16h44.8l1.69,5.29h-44ZM999.73,474h44.79l2.54,5.29h-44.8Zm7.6,21.16H1053l1.7,5.3h-44.8Zm7.61,21.17h45.64l2.54,5.29h-45.64Zm7.61,21.16H1069l1.69,5.29h-45.64Zm7.6,21.16h46.49l2.54,5.29h-46.49Zm54.94,21.17,1.69,5.29H1040.3l-2.54-5.29ZM1092.7,601l2.54,5.29h-48.18l-2.54-5.29Zm8.45,21.16,1.69,5.29h-48.17l-2.54-5.29Zm7.61,21.16,2.54,5.29h-49l-2.53-5.29ZM1105,673l16-15-56,4,110,128ZM856.88,516.34h45.64L900,521.63H854.35Zm-16.06,42.32h45.65L883.93,564h-44.8Z" transform="translate(-536.5 -116.5)"/><path class="cls-6" d="M1134.3,498.73V609.62a16,16,0,0,1-8.41,0V486a23.25,23.25,0,0,1,10.1,0l67.13,112.76V486a16.21,16.21,0,0,1,8.41,0V609.62a28.25,28.25,0,0,1-11.22,0Z" transform="translate(-536.5 -116.5)"/><rect class="cls-8" x="34" y="398" width="778" height="8.5"/><path class="cls-8" d="M571.25,577.33h777.6l.4,8.42-778,.08Z" transform="translate(-536.5 -116.5)"/><path class="cls-6" d="M591.45,609.62V486a16.21,16.21,0,0,1,8.41,0V601.77h55a14,14,0,0,1,0,7.85Z" transform="translate(-536.5 -116.5)"/><path class="cls-6" d="M868,579.14c0,21.69-17.21,30.48-43.57,30.48H791.54V486h28.23c27.12,0,44.51,8.61,44.51,29.55v6.17c0,12.72-6.92,20.2-18.89,23.75,14,3.55,22.63,12,22.63,27.49Zm-8.42-5c0-21.32-16.27-24.31-35.34-24.31H800v51.61h24.5c19.26,0,35.15-3.74,35.15-23Zm-3.74-57.41c0-19.26-16.27-22.62-36.09-22.62H800v48.61h19.64c19.63,0,36.27-2.8,36.27-21.13Z" transform="translate(-536.5 -116.5)"/><path class="cls-6" d="M899.81,486h33.84C961,486,978,494.62,978,519.49v6.35c0,19.64-12,28.43-32,30.86,13.83,15.89,24.68,35.53,33.28,52.92a18.93,18.93,0,0,1-9.16,0c-8.42-17-19.64-36.28-33.66-52.36H908.22v52.36a16,16,0,0,1-8.41,0Zm69.75,34.41c0-23-16.27-26.36-36.28-26.36H908.22v55.72h25.06c20,0,36.28-3.55,36.28-24.68Z" transform="translate(-536.5 -116.5)"/><path class="cls-6" d="M1082.88,486a14.84,14.84,0,0,1,8,0v91.45c0,25.61-16.83,34.4-42.08,34.4-25.61,0-42.44-8.79-42.44-34.4V486a16.21,16.21,0,0,1,8.41,0v91.07c0,23.19,15.71,26.55,34,26.55,18.14,0,34-3.36,34-26.55Z" transform="translate(-536.5 -116.5)"/><path class="cls-6" d="M1331.58,577.46c0,25.8-17,34.4-42.63,34.4s-42.64-8.6-42.64-34.4v-60c0-25.62,17-34.22,42.64-34.22s42.63,8.6,42.63,34.22ZM1323.17,518c0-23.75-15.9-26.93-34.22-26.93s-34.22,3.18-34.22,26.93v59.09c0,23.19,15.89,26.55,34.22,26.55s34.22-3.36,34.22-26.55Z" transform="translate(-536.5 -116.5)"/></svg>